<?xml version="1.0" encoding="UTF-8"?>
<svg id="Layer_1" data-name="Layer 1" xmlns="http://www.w3.org/2000/svg" viewBox="0 0 1887.68 245.07">
  <defs>
    <style>
      .cls-1 {
        fill: #fff;
        stroke-width: 0px;
      }
    </style>
  </defs>
  <g id="RUG_LOGO___Wit" data-name="RUG LOGO _ Wit">
    <g id="g8">
      <g id="g10">
        <path id="path12" class="cls-1" d="M745.59,154.34h2.99c3.23,0,3.63.72,3.63,6.08v19.55c0,3.69-.4,5.04-4.52,5.04h-2.59v3.93h22.63v-3.93h-1.14c-4.12,0-4.52-1.36-4.52-5.04v-13.14c0-7.53,4.04-11.69,9.94-11.69,4.36,0,7.11,2.56,7.11,8.25v16.59c0,3.69-.4,5.04-4.52,5.04h-1.13v3.93h22.14v-3.93h-2.1c-4.12,0-4.52-1.36-4.52-5.04v-18.91c0-8.66-6.14-12.18-14.06-12.18-6.55,0-11.15,2.72-13.9,9.21h-.17v-8.89c-3.96.48-11.15.96-15.27.96v4.17ZM739.2,170.21v-1.85c0-13.46-5.41-19.47-18.42-19.47s-19.39,8.81-19.39,20.67,5.82,20.67,19.39,20.67,17.53-6.89,17.61-13.78h-8.24c-.08,6.01-2.5,9.14-8.4,9.14-9.94,0-10.02-9.94-10.02-15.39h27.47ZM711.73,165.56c0-6.73,2.02-12.26,8.97-12.26s8.64,5.69,8.64,12.26h-17.61ZM680.95,162.84c0,6.97-2.02,10.33-6.38,10.33s-7.03-3.04-7.03-10.26,2.43-9.61,6.95-9.61c3.88,0,6.46,2.24,6.46,9.53M684.34,195.68c0,3.68-2.5,7.53-10.18,7.53-6.79,0-9.46-3.21-9.46-7.13,0-4.25,2.43-7.77,9.7-7.77s9.94,3.28,9.94,7.37M696.06,149.53l-11.96,1.04c-2.26-.64-5.98-1.68-9.37-1.68-10.59,0-17.53,6.01-17.53,13.78,0,7.29,4.61,10.89,10.67,12.82v.16c-5.57.48-7.92,2.49-7.92,5.04,0,2.72,1.86,4.09,7.27,5.13v.16c-5.66.56-12.36,3.53-12.36,10.01s5.57,11.62,18.34,11.62c13.57,0,21-4.4,21-11.85,0-9.46-7.59-10.58-15.19-11.14-8.89-.64-10.35-1.44-10.35-3.69,0-2.64,3.64-3.04,6.3-3.45l1.94-.32c11.31-1.84,14.86-7.85,14.86-14.26,0-3.44-1.54-6.57-3.55-8.09v-.16h7.83v-5.13ZM600.64,154.34h2.99c3.23,0,3.63.72,3.63,6.08v19.55c0,3.69-.4,5.04-4.52,5.04h-2.59v3.93h22.62v-3.93h-1.13c-4.12,0-4.52-1.36-4.52-5.04v-13.14c0-7.53,4.04-11.69,9.94-11.69,4.36,0,7.11,2.56,7.11,8.25v16.59c0,3.69-.4,5.04-4.52,5.04h-1.14v3.93h22.14v-3.93h-2.1c-4.12,0-4.52-1.36-4.52-5.04v-18.91c0-8.66-6.15-12.18-14.06-12.18-6.55,0-11.15,2.72-13.9,9.21h-.16v-8.89c-3.96.48-11.15.96-15.27.96v4.17ZM578.75,136.48c0,3.44,2.1,6.01,5.89,6.01s5.9-2.56,5.9-6.01-2.1-6.01-5.9-6.01-5.89,2.57-5.89,6.01M573.25,154.34h2.99c3.23,0,3.64.72,3.64,6.08v19.55c0,3.69-.41,5.04-4.53,5.04h-2.59v3.93h23.59v-3.93h-2.1c-4.12,0-4.52-1.36-4.52-5.04v-30.77c-5.17.48-12.36.96-16.48.96v4.17ZM518.97,154.34h2.98c3.23,0,3.64.72,3.64,6.08v19.55c0,3.69-.41,5.04-4.52,5.04h-2.59v3.93h22.62v-3.93h-1.13c-4.12,0-4.53-1.36-4.53-5.04v-13.14c0-7.53,4.04-11.69,9.94-11.69,4.36,0,7.11,2.56,7.11,8.25v16.59c0,3.69-.4,5.04-4.52,5.04h-1.14v3.93h22.14v-3.93h-2.1c-4.12,0-4.53-1.36-4.53-5.04v-18.91c0-8.66-6.14-12.18-14.06-12.18-6.54,0-11.15,2.72-13.9,9.21h-.16v-8.89c-3.96.48-11.15.96-15.26.96v4.17ZM474.77,169.57c0,11.86,5.81,20.67,19.39,20.67s19.39-8.81,19.39-20.67-5.82-20.67-19.39-20.67-19.39,8.81-19.39,20.67M485.11,169.57c0-10.9,2.42-16.02,9.05-16.02s9.05,5.13,9.05,16.02-2.43,16.03-9.05,16.03-9.05-5.13-9.05-16.03M434.76,154.34h3.47c3.23,0,3.64.72,3.64,6.08v19.55c0,3.69-.41,5.04-4.52,5.04h-2.59v3.93h25.77v-3.93h-4.28c-4.12,0-4.53-1.36-4.53-5.04v-13.14c0-6.72,3.72-11.69,7.43-11.69,3.15,0,4.04,2.24,4.12,6.24h7.75v-11.53c-1.86-.64-4.12-.96-6.46-.96-6.54,0-11.15,2.72-13.9,9.21h-.16v-8.89c-3.96.48-11.15.96-15.75.96v4.17ZM415.93,162.84c0,6.97-2.02,10.33-6.38,10.33s-7.03-3.04-7.03-10.26,2.43-9.61,6.95-9.61c3.88,0,6.46,2.24,6.46,9.53M419.33,195.68c0,3.68-2.5,7.53-10.18,7.53-6.78,0-9.45-3.21-9.45-7.13,0-4.25,2.42-7.77,9.69-7.77s9.94,3.28,9.94,7.37M431.04,149.53l-11.96,1.04c-2.26-.64-5.98-1.68-9.37-1.68-10.58,0-17.53,6.01-17.53,13.78,0,7.29,4.6,10.89,10.67,12.82v.16c-5.58.48-7.92,2.49-7.92,5.04,0,2.72,1.85,4.09,7.27,5.13v.16c-5.65.56-12.36,3.53-12.36,10.01s5.57,11.62,18.34,11.62c13.57,0,21.01-4.4,21.01-11.85,0-9.46-7.6-10.58-15.19-11.14-8.89-.64-10.34-1.44-10.34-3.69,0-2.64,3.64-3.04,6.3-3.45l1.93-.32c11.31-1.84,14.87-7.85,14.87-14.26,0-3.44-1.54-6.57-3.56-8.09v-.16h7.84v-5.13"/>
        <path id="path14" class="cls-1" d="M1014.88,74.7h7.11v23c0,9.94,4.52,12.58,12.69,12.58s12.36-3.85,12.36-12.42v-1.76h-6.78v4.09c0,3.44-1.29,4.97-4.2,4.97s-4.2-1.53-4.2-4.97v-25.48h12.93v-4.64h-12.93v-11.3h-7.02c-.65,8.09-2.43,10.42-9.94,11.3v4.64ZM993.47,56.36c0,3.44,2.1,6.01,5.9,6.01s5.9-2.57,5.9-6.01-2.1-6.01-5.9-6.01-5.9,2.56-5.9,6.01M987.97,74.22h2.99c3.23,0,3.64.72,3.64,6.09v19.55c0,3.69-.41,5.04-4.52,5.04h-2.58v3.93h23.58v-3.93h-2.1c-4.13,0-4.53-1.36-4.53-5.04v-30.77c-5.17.48-12.36.96-16.48.96v4.17ZM981.59,90.09v-1.84c0-13.46-5.41-19.47-18.42-19.47s-19.4,8.81-19.4,20.67,5.82,20.67,19.4,20.67,17.53-6.89,17.61-13.78h-8.24c-.08,6.01-2.5,9.14-8.4,9.14-9.94,0-10.02-9.94-10.02-15.38h27.46ZM954.13,85.44c0-6.73,2.02-12.26,8.97-12.26s8.64,5.69,8.64,12.26h-17.61ZM905.89,74.7h7.11v23c0,9.94,4.52,12.58,12.68,12.58s12.36-3.85,12.36-12.42v-1.76h-6.78v4.09c0,3.44-1.3,4.97-4.2,4.97s-4.2-1.53-4.2-4.97v-25.48h12.93v-4.64h-12.93v-11.3h-7.04c-.64,8.09-2.42,10.42-9.93,11.3v4.64ZM884.48,56.36c0,3.44,2.1,6.01,5.9,6.01s5.9-2.57,5.9-6.01-2.1-6.01-5.9-6.01-5.9,2.56-5.9,6.01M878.99,74.22h2.99c3.23,0,3.64.72,3.64,6.09v19.55c0,3.69-.41,5.04-4.52,5.04h-2.59v3.93h23.59v-3.93h-2.1c-4.12,0-4.53-1.36-4.53-5.04v-30.77c-5.17.48-12.36.96-16.48.96v4.17ZM840.29,107.55c2.34.97,8.24,2.57,14.86,2.57,8.48,0,17.45-3.61,17.45-12.98,0-6.09-3.07-8.42-10.02-10.66l-6.62-2.16c-3.72-1.2-5.82-3.36-5.82-6.41,0-3.21,2.35-4.73,6.06-4.73,5.82,0,7.35,2.56,7.35,8.73h6.79v-10.97c-2.35-1.04-7.76-2.16-13.9-2.16-9.54,0-16.16,4.4-16.16,11.69,0,6.25,4.52,9.62,13.9,12.42,7.43,2.24,8.56,4.01,8.56,6.97,0,3.69-3.4,5.85-8.56,5.85-5.58,0-7.11-3.68-7.11-9.37h-6.78v11.21ZM798.34,74.22h3.48c3.23,0,3.63.72,3.63,6.09v19.55c0,3.69-.4,5.04-4.52,5.04h-2.59v3.93h25.77v-3.93h-4.28c-4.12,0-4.52-1.36-4.52-5.04v-13.14c0-6.73,3.72-11.69,7.43-11.69,3.15,0,4.04,2.24,4.12,6.24h7.75v-11.53c-1.86-.64-4.12-.96-6.46-.96-6.54,0-11.15,2.72-13.89,9.21h-.17v-8.89c-3.96.48-11.15.96-15.75.96v4.17ZM792.44,90.09v-1.84c0-13.46-5.41-19.47-18.42-19.47s-19.39,8.81-19.39,20.67,5.82,20.67,19.39,20.67,17.53-6.89,17.61-13.78h-8.24c-.08,6.01-2.5,9.14-8.4,9.14-9.94,0-10.02-9.94-10.02-15.38h27.47ZM764.97,85.44c0-6.73,2.02-12.26,8.97-12.26s8.64,5.69,8.64,12.26h-17.61ZM735.07,73.99h3.4c1.86,0,2.34.47,2.34,1.04,0,.64-.16,1.44-.41,2l-8.4,23.8h-.16l-7.76-22.6c-.24-.8-.73-1.76-.73-2.8,0-.88.81-1.44,3.23-1.44h2.67v-3.93h-20.2v3.93h.97c1.78,0,2.26.47,3.31,3.12l12.52,32.21h9.54l12.52-32.61c.81-2.08,1.54-2.72,3.23-2.72h1.05v-3.93h-17.13v3.93ZM690.15,56.36c0,3.44,2.1,6.01,5.9,6.01s5.9-2.57,5.9-6.01-2.1-6.01-5.9-6.01-5.9,2.56-5.9,6.01M684.65,74.22h2.99c3.23,0,3.64.72,3.64,6.09v19.55c0,3.69-.41,5.04-4.52,5.04h-2.59v3.93h23.59v-3.93h-2.1c-4.12,0-4.53-1.36-4.53-5.04v-30.77c-5.17.48-12.36.96-16.48.96v4.17ZM630.36,74.22h2.99c3.23,0,3.63.72,3.63,6.09v19.55c0,3.69-.4,5.04-4.52,5.04h-2.59v3.93h22.62v-3.93h-1.13c-4.12,0-4.52-1.36-4.52-5.04v-13.14c0-7.53,4.04-11.69,9.94-11.69,4.36,0,7.11,2.56,7.11,8.25v16.58c0,3.69-.4,5.04-4.52,5.04h-1.13v3.93h22.14v-3.93h-2.1c-4.12,0-4.52-1.36-4.52-5.04v-18.9c0-8.66-6.14-12.18-14.06-12.18-6.54,0-11.15,2.72-13.89,9.21h-.17v-8.89c-3.96.48-11.15.96-15.27.96v4.17ZM610.81,108.84h15.27v-3.93h-2.1c-4.12,0-4.52-1.36-4.52-5.04v-30.77c-5.17.48-12.36.96-16.48.96v4.17h2.99c3.23,0,3.64.72,3.64,6.09v10.98c0,8.25-2.99,12.58-9.86,12.58-4.6,0-7.19-2.33-7.19-7.05v-27.72c-5.17.48-12.36.96-16.48.96v4.17h2.99c3.23,0,3.64.72,3.64,6.09v18.75c0,7.45,4.85,11.06,12.85,11.06s13.25-3.52,15.11-8.89h.16v7.61ZM537.37,107.55c2.34.97,8.24,2.57,14.86,2.57,8.48,0,17.45-3.61,17.45-12.98,0-6.09-3.07-8.42-10.02-10.66l-6.62-2.16c-3.72-1.2-5.82-3.36-5.82-6.41,0-3.21,2.34-4.73,6.06-4.73,5.82,0,7.35,2.56,7.35,8.73h6.78v-10.97c-2.34-1.04-7.75-2.16-13.89-2.16-9.54,0-16.16,4.4-16.16,11.69,0,6.25,4.52,9.62,13.89,12.42,7.43,2.24,8.56,4.01,8.56,6.97,0,3.69-3.39,5.85-8.56,5.85-5.57,0-7.11-3.68-7.11-9.37h-6.78v11.21ZM485.5,55.48h2.99c3.23,0,3.64.72,3.64,6.09v38.3c0,3.69-.41,5.04-4.53,5.04h-2.58v3.93h22.62v-3.93h-1.13c-4.12,0-4.52-1.36-4.52-5.04v-49.51c-5.17.48-12.36.96-16.48.96v4.17ZM508.93,73.99h4.04c.57,0,1.3.32,1.3,1.12,0,.64-.57,1.28-3.96,4.73l-7.43,7.69c11.47,14.82,11.79,15.39,11.79,16.03,0,.8-.81,1.36-2.02,1.36h-1.62v3.93h20.44v-3.93c-3.31-.08-4.36-.56-7.27-4.16l-11.72-14.67,10.43-10.25c1.54-1.44,2.5-1.84,3.88-1.84h2.67v-3.93h-20.52v3.93ZM463.6,56.36c0,3.44,2.1,6.01,5.9,6.01s5.9-2.57,5.9-6.01-2.1-6.01-5.9-6.01-5.9,2.56-5.9,6.01M447.45,126.06c1.62.4,5.65,1.44,10.66,1.44,13.58,0,16.49-8.42,16.49-16.43v-41.98c-5.33.48-12.52.96-18.18.96v4.17h4.53c3.23,0,3.8.72,3.8,6.09v32.44c0,7.46-2.35,9.62-5.9,9.62s-4.61-2.48-4.61-6.25h-6.78v9.94ZM436.21,56.36c0,3.44,2.1,6.01,5.9,6.01s5.9-2.57,5.9-6.01-2.1-6.01-5.9-6.01-5.9,2.56-5.9,6.01M430.72,74.22h2.99c3.23,0,3.64.72,3.64,6.09v19.55c0,3.69-.41,5.04-4.52,5.04h-2.59v3.93h23.59v-3.93h-2.1c-4.12,0-4.53-1.36-4.53-5.04v-30.77c-5.17.48-12.36.96-16.48.96v4.17ZM389.44,74.22h3.47c3.23,0,3.64.72,3.64,6.09v19.55c0,3.69-.4,5.04-4.52,5.04h-2.58v3.93h25.77v-3.93h-4.28c-4.12,0-4.53-1.36-4.53-5.04v-13.14c0-6.73,3.72-11.69,7.44-11.69,3.15,0,4.04,2.24,4.12,6.24h7.75v-11.53c-1.86-.64-4.12-.96-6.46-.96-6.54,0-11.15,2.72-13.89,9.21h-.16v-8.89c-3.96.48-11.15.96-15.75.96v4.17"/>
        <path id="path16" class="cls-1" d="M346.17,69.48l-143.47,175.6h-11.4s143.45-175.59,143.45-175.59h11.42"/>
        <path id="path18" class="cls-1" d="M69.31,35.28c-1.04.16-2.51.57-3.37-1.28-.78-1.67,2.14-4.38,3.11-5.25,1.25-1.13-.37-2.35-1.33-1.03-.27.37-2.55,3.57-4.35,3.57-2.78,0-2.62-3.24-2.62-3.24,0,0-3.11-1.96-3.11-8.2,0-5.55,3.7-8.2,3.7-8.2,0,0,.03-3.16,2.52-3.08,2.48.08,4.1,3.48,4.25,3.71,1.26,1.88,2.84.28,1.74-1.06-2.61-3.15-3.16-5.63-.31-6.96,1.04-2.34,4.16-3.99,7.58-4.25h.11s.11-.02.11-.02c3.41.28,6.54,1.92,7.57,4.27,2.85,1.33,2.3,3.81-.31,6.96-1.1,1.34.48,2.93,1.74,1.06.16-.23,1.76-3.63,4.26-3.71,2.49-.08,2.52,3.08,2.52,3.08,0,0,3.69,2.66,3.69,8.2,0,6.24-3.11,8.2-3.11,8.2,0,0,.16,3.24-2.62,3.24-1.79,0-4.08-3.2-4.35-3.57-.95-1.32-2.58-.11-1.33,1.03.97.87,3.89,3.58,3.11,5.25-.86,1.84-2.33,1.43-3.37,1.28,0,0-.96,1.65-2.4,1.65,7.22,5.35,18.56,2.32,20.08-1.6,0,0-1.92.38-1.9-1.62.01-1.21,1.25-1.86,2.93-2.11-.35-.77-.53-1.68-.47-2.68.17-2.81,2.12-5.16,4.37-5.27,2.25-.09,3.93,2.1,3.77,4.91-.08,1.41-.62,2.71-1.42,3.67,1.65.56,2.81,1.4,2.65,2.37-.4,2.58-2.81,1.94-2.81,1.94-.29,5.89,8.77,7.01,11.08,5.49-.92-3.4.45-4.42,1.5-5.33.74-.65,2.96-2.01,3.27-2.21.69-.45,1.05-1.4.62-1.75-.41-.33-1.31.24-1.74.72-.61.68-1.69,2.3-3.37,1.86-2.04-.53-1.16-2.84-1.5-4.09-2.17-7.85-.31-13.33,7.6-16.62,0,0,3.01-3.14,5.71-1.73,2.59,1.36.98,5.55.98,5.55l.8.37c2.89-5.2,7.07-8.98,13.07-9.13,4.25-.11,6.3,2.38,6.47,5.78.37,7.58-7.44,4.76-6.83,1.92,0,0-1.89.19-2.93,1.84,0-.47.06-4.98-3.99-2.6-1.15.68-3.2,4.08-3.35,4.51-.51,1.49.22,1.73-.56,3.19-.62,1.14-1.48,1.4-1.84,2.2-.38.79.16,2.36-.35,3.37-.62,1.24-1.47,1.33-2.03,2.45-.45.88-6.1,15.18-6.1,15.18,0,0,2.25,1.43,1.82,3.55-.57,2.85-2.4,2.23-3.37,4.1-30.73-7.84-62.53-7.88-95.39-.14-.99-1.71-2.74-1.19-3.3-3.97-.43-2.12,1.82-3.55,1.82-3.55,0,0-5.66-14.3-6.1-15.18-.56-1.12-1.41-1.21-2.03-2.45-.51-1.01.02-2.58-.35-3.37-.37-.79-1.23-1.06-1.84-2.2-.79-1.46-.06-1.7-.57-3.19-.14-.43-2.19-3.83-3.35-4.51-4.05-2.38-3.99,2.12-3.99,2.6-1.04-1.65-2.93-1.84-2.93-1.84C7.46,20.24-.36,23.07.01,15.48c.17-3.4,2.22-5.89,6.47-5.78,6.01.15,10.18,3.92,13.07,9.13l.8-.37s-1.6-4.19.98-5.55c2.7-1.41,5.71,1.73,5.71,1.73,7.92,3.29,9.77,8.76,7.6,16.62-.34,1.25.54,3.56-1.5,4.09-1.69.44-2.76-1.18-3.37-1.86-.43-.47-1.33-1.05-1.74-.72-.43.35-.08,1.31.61,1.75.31.2,2.52,1.55,3.27,2.21,1.05.91,2.41,1.94,1.5,5.33,2.31,1.52,11.37.39,11.08-5.49,0,0-2.41.64-2.81-1.94-.15-.97,1.01-1.81,2.65-2.37-.8-.96-1.33-2.26-1.42-3.67-.17-2.8,1.52-5,3.77-4.91,2.25.1,4.2,2.46,4.37,5.27.05,1-.12,1.91-.47,2.68,1.68.24,2.92.9,2.94,2.11.02,2-1.9,1.62-1.9,1.62,1.52,3.92,12.86,6.95,20.09,1.6-1.45,0-2.41-1.65-2.41-1.65M71.91,20.62c0,2.91,2.38,5.27,5.31,5.27s5.31-2.36,5.31-5.27-2.38-5.26-5.31-5.26-5.31,2.36-5.31,5.26M101.22,43.46c2.29-.06,6.76.86,6.76.86,0,0-1.9-2.11-2.77-3.54,0,0-1.01.94-1.63,1.39-.48.35-2.36,1.29-2.36,1.29M77.22,38.84c-.89.99-2.62,2.68-4.51,3.32,0,0,3.1-.08,4.44-.1h.14c1.34.02,4.44.1,4.44.1-1.89-.64-3.62-2.33-4.51-3.32M53.23,43.46s-1.88-.94-2.36-1.29c-.62-.44-1.63-1.39-1.63-1.39-.87,1.43-2.77,3.54-2.77,3.54,0,0,4.47-.92,6.76-.86M123.53,57.69c1.47.39,3.54,1.83,2.97,3.94-.57,2.11-3.09,2.33-4.56,1.94-1.48-.39-3.54-1.83-2.97-3.94.57-2.11,3.09-2.33,4.56-1.94M104.22,57.11l-4.48,3.73-3.76-4.44,4.48-3.72,3.76,4.44ZM33.02,63.56c-1.48.39-3.99.17-4.56-1.94-.57-2.11,1.5-3.55,2.97-3.94,1.48-.39,3.99-.17,4.56,1.94.57,2.11-1.49,3.55-2.97,3.94M72.81,55.71c0-1.67,2.09-3.03,4.66-3.03s4.67,1.36,4.67,3.03-2.09,3.04-4.67,3.04-4.66-1.36-4.66-3.04M50.74,57.11l3.76-4.44,4.48,3.72-3.76,4.44-4.48-3.73ZM12.43,191.17c.51-2.02,2.68-1.57,2.68-1.57,0,0-.52-1.86,1.4-2.71,2.12-.94,3.18,1.38,3.18,1.38l.89,5.98-6.43-.21s-2.28-.62-1.71-2.86M21.54,181.27c.5-2.02,2.68-1.56,2.68-1.56,0,0-.52-1.86,1.4-2.71,2.12-.95,3.17,1.38,3.17,1.38l.89,5.98-6.43-.21s-2.28-.63-1.71-2.87M30.63,171.38c.51-2.02,2.68-1.56,2.68-1.56,0,0-.51-1.86,1.4-2.72,2.12-.94,3.18,1.38,3.18,1.38l.89,5.98-6.43-.21s-2.27-.63-1.71-2.87M77.28,79.74c.51-2.02,2.68-1.57,2.68-1.57,0,0-.52-1.86,1.4-2.71,2.12-.94,3.17,1.38,3.17,1.38l.9,5.98-6.43-.21s-2.28-.63-1.71-2.86M86.18,113.49c.51-2.02,2.67-1.57,2.67-1.57,0,0-.51-1.86,1.4-2.71,2.12-.95,3.17,1.38,3.17,1.38l.89,5.98-6.43-.21s-2.28-.63-1.71-2.87M96.86,102.27c.51-2.02,2.68-1.57,2.68-1.57,0,0-.51-1.86,1.4-2.71,2.12-.95,3.17,1.38,3.17,1.38l.89,5.98-6.42-.21s-2.28-.63-1.72-2.87M107.54,91.05c.51-2.01,2.68-1.56,2.68-1.56,0,0-.52-1.86,1.4-2.71,2.12-.95,3.17,1.37,3.17,1.37l.89,5.98-6.42-.21s-2.28-.63-1.72-2.87M118.23,79.84c.51-2.02,2.68-1.56,2.68-1.56,0,0-.52-1.86,1.4-2.71,2.12-.95,3.18,1.38,3.18,1.38l.89,5.98-6.43-.21s-2.28-.63-1.71-2.87M6.38,155.35c.51-2.02,2.68-1.56,2.68-1.56,0,0-.52-1.87,1.4-2.71,2.12-.95,3.18,1.37,3.18,1.37l.89,5.98-6.43-.21s-2.28-.63-1.71-2.86M31.19,215.38c.51-2.02,2.68-1.56,2.68-1.56,0,0-.52-1.86,1.4-2.71,2.12-.95,3.18,1.38,3.18,1.38l.89,5.98-6.43-.21s-2.28-.63-1.71-2.87M41.75,203.99c.51-2.02,2.68-1.57,2.68-1.57,0,0-.51-1.86,1.4-2.71,2.12-.94,3.17,1.38,3.17,1.38l.89,5.98-6.42-.21s-2.28-.63-1.72-2.87M52.32,192.6c.51-2.02,2.68-1.56,2.68-1.56,0,0-.52-1.86,1.4-2.71,2.12-.95,3.17,1.38,3.17,1.38l.89,5.98-6.43-.21s-2.27-.63-1.71-2.87M62.88,181.21c.51-2.02,2.68-1.57,2.68-1.57,0,0-.52-1.86,1.4-2.71,2.12-.95,3.18,1.38,3.18,1.38l.89,5.98-6.43-.21s-2.28-.64-1.71-2.87M109.4,132.78c.51-2.02,2.67-1.56,2.67-1.56,0,0-.52-1.86,1.4-2.71,2.12-.95,3.17,1.37,3.17,1.37l.89,5.98-6.42-.21s-2.28-.63-1.72-2.87M118.92,122.48c.51-2.02,2.68-1.56,2.68-1.56,0,0-.52-1.87,1.4-2.71,2.12-.95,3.18,1.37,3.18,1.37l.89,5.98-6.43-.21s-2.27-.63-1.71-2.86M128.45,112.18c.51-2.02,2.68-1.57,2.68-1.57,0,0-.52-1.86,1.4-2.71,2.12-.95,3.18,1.38,3.18,1.38l.89,5.98-6.43-.21s-2.28-.64-1.71-2.87M137.97,101.87c.51-2.02,2.68-1.56,2.68-1.56,0,0-.51-1.86,1.4-2.71,2.12-.95,3.17,1.38,3.17,1.38l.89,5.98-6.43-.21s-2.28-.63-1.71-2.87M64.04,225.49c.51-2.02,2.68-1.57,2.68-1.57,0,0-.51-1.86,1.4-2.71,2.12-.94,3.18,1.38,3.18,1.38l.89,5.98-6.43-.21s-2.28-.63-1.71-2.87M138.03,144.3c.51-2.02,2.68-1.57,2.68-1.57,0,0-.51-1.86,1.4-2.71,2.12-.94,3.18,1.38,3.18,1.38l.89,5.98-6.43-.21s-2.28-.63-1.71-2.87M66.46,152.45c0-.31.51-.26,1.47-.42.96-.16,1.82-.47,1.82-.16,0,.47-.66.1-.66.87v7.44c0,.37.51.1.51.4,0,.37-.91.21-1.58.21s-1.58.16-1.58-.14c0-.5.62,0,.62-.47v-7.07c0-.75-.58-.06-.58-.67M58.32,155.67c0-.21.26-.23.75-.47.48-.23.77-.5,1.2-.13.42.37,2.75,3.02,2.75,3.02v-3.76c0-.43-.75.13-.75-.29,0-.31.32-.31.85-.53.53-.21,1.31-.79,1.31-.43,0,.45-.56.31-.56.9v7.25c0,.61-.06.61-.32.61-.16,0-3.86-4.62-3.86-4.62v4.92c0,.45.89-.17.89.25,0,.24-.54.37-1.07.58-.54.21-1.28.56-1.28.29,0-.45.66-.29.66-.74v-6.38c0-.48-.58-.11-.58-.48M55.42,160.21c0-3.07-1.98-1.93-1.98-1.93v6.31s1.98-.04,1.98-4.38M50.81,158.94c0-.22.96-.58,1.6-.87,1.15-.53,4.86-2.41,4.86,2.12,0,4.16-2.94,4.84-3.87,5.27-.94.43-2.2,1.04-2.3.83-.16-.33.5-.38.5-1.12v-5.16c0-1.3-.8-.62-.8-1.06M63.74,140.17c-.02-.19.76-.32,1.15-.43.67-.18,1.09-.31,1.38-.03.28.28,1.65,2.47,1.65,2.47,0,0,1.76-2.47,1.91-2.64.14-.17.2-.4.9-.42.81-.02,1.17-.1,1.17.07,0,.3-.51.16-.54.79-.02.5,0,6.42,0,6.75,0,.76.52.5.52.76s-.34.15-1.53.14c-.98-.02-1.64.13-1.64-.06,0-.34.52-.05.52-.74v-4.51s-1.71,2.47-1.8,2.47c-.1,0-2.19-3.16-2.19-3.16v5.41c0,.87.87.36.87.7,0,.17-.66.24-1.15.36-.56.14-1.05.34-1.11.19-.12-.33.61-.15.61-1.12,0-.86.01-5.82,0-6.19-.03-.96-.7-.54-.73-.82M61.27,141.12c.29-.14,1.06-.55,1.15-.42.13.18-.31.22-.61,1.53-.12.47-1.55,7.97-2.09,8.24-.17.09-2.61-5.9-2.83-6.38-.4-.85-.82-.28-.91-.58-.05-.19.62-.44,1.17-.69.3-.14,1.37-.78,1.49-.65.22.25-.59.26-.2,1.18.26.62,1.62,3.6,1.62,3.6,0,0,.8-3.36,1.05-4.5.24-1.13-.64-.57-.67-.82-.02-.15.42-.33.8-.49h.03ZM51.92,148.99v4.12s2.14-.44,2.14-3.01c0-2.2-2.14-1.11-2.14-1.11M51.89,145.37v2.73s1.55-.57,1.55-1.9c0-1.58-1.55-.83-1.55-.83M52.06,144.67c.9-.35,3.28-.82,3.28,1.22,0,1.46-.96,1.8-.96,1.8,0,0,1.74.32,1.74,1.75,0,1.64-.8,2.78-1.71,3.26-.46.24-3.31,1.61-3.58,1.77-.27.16-.9.5-.97.35-.16-.36.47-.3.47-1.36v-6.6c0-1.4-.67-.78-.67-1.15,0-.23,1.47-.68,2.4-1.04M66.87,126.08v3.33s1.58-.1,1.58-1.9c0-2.15-1.58-1.43-1.58-1.43M71.05,133.52c.48.06.69-.13.69-.13,0,0-.16,1.19-1.41,1.19-1.71,0-1.68-2.91-2.16-3.76-.48-.85-1.29-.4-1.29-.4v2.96c0,.95.6.54.6.89,0,.14-.47.22-.47.22,0,0-1.31.37-1.79.47-.48.1-.69.21-.69,0,0-.38.47-.14.47-1.18v-6.13c0-1.19-.69-.79-.71-1.13-.01-.2.48-.29.96-.41.81-.2,1.11-.45,2.26-.71,1.11-.26,3.05.27,3.05,1.8,0,1.7-.97,2.04-1.49,2.44,1.97.96,1.09,3.76,1.97,3.87M58.08,129.16c.8-.26,2.22-.86,3.74-1.71.21-.12.83-.5,1.12.05.31.57.54,1.32.35,1.4-.27.11-.45-.11-.8-.29-.3-.16-.7-.34-1.07-.24-.38.11-.89.33-.89.33v2.61s.94,0,1.05-.5c.09-.4.25-.93.55-1.01.17-.04.12.49.14,1.24.01.26.03.4.03.54.02.92-.04,1.22-.17,1.25-.25.05-.47-.62-.53-.78-.11-.27-1.05-.02-1.05.13v3.76s.72-.38,1.04-.57c.43-.25,1.17-1.09,1.46-1.59.28-.49.39-.89.65-.85.17.03-.19,1.64-.19,1.64,0,0-.03.63-.56.89-.53.27-3.52,1.65-3.78,1.78-.51.24-1.13.67-1.14.44-.01-.37.49-.17.49-1.27l-.02-6.26s-.02-.53-.42-.6c-.31-.05-.6-.19,0-.4M51.09,132.04c.43-.15,1.65-.66,1.71-.52.17.38-.63.29-.37,1.05.22.63,1.63,3.95,1.63,3.95l1.23-4.77c.26-1.03-.58-.67-.65-.92-.05-.17.62-.37.99-.53.31-.14,1.3-.56,1.35-.44.13.33-.38.33-.64,1.26-.32,1.1-2.19,8.56-2.71,8.84-.29.16-2.87-6.27-3.07-6.78-.2-.5-.89-.31-.96-.61-.03-.12,1.05-.38,1.48-.52M84.93,152.7c-.02-.2.29-.12.74.02.45.13,1,.27,1.37.87.37.61,3.19,5.38,3.19,5.38l-.02-4.31c0-.57-.51-.59-.51-.82,0-.22.39,0,.8.14.41.14,1,.2,1,.39s-.53-.09-.53.42v8.12s0,.35-.24.03c-.19-.26-4.41-6.99-4.41-6.99,0,0,.02,4.22,0,4.66-.01.5.55.45.55.7s-.6.12-.97.05c-.37-.07-.93-.02-.93-.34s.51.17.51-.59v-6.91c0-.52-.55-.56-.56-.82M88.91,140.27c0-.31,1.34.23,2.39.53,1.05.3,3.03.62,3.03,1.26,0,.78.21,1.53-.05,1.53-.16,0-.48-.99-.8-1.32-.49-.48-1.49-.7-1.76-.75-.28-.05-.21-.04-.21.15v2.53s.68.33,1.05.16.42-.76.64-.71c.22.05.14.5.1,1.38-.04.87.07,1.67-.15,1.58-.22-.08-.23-.82-.69-1.26-.46-.44-.97-.5-.97-.5v4.12s.51.55,1.56.22c1.05-.34,1.8-1.04,1.97-.88.17.17.09.4-.42,1.19-.51.79-.78,1.3-1.29,1.08-.51-.22-1.66-.65-2.37-.97-.71-.32-2.18-.68-2.18-.98s.72.25.72-.62v-7.04c0-.35-.58-.47-.58-.7M87.19,139.06c.38,0,.3,1.37.36,1.81.1.85.36,1.6.09,1.61-.41.02-.89-1.33-1.55-2-.62-.63-2.88-1.78-2.88,2.97,0,4.06,1.78,3.97,2.75,3.67.95-.3,1.35-1.04,1.46-.97.12.07-.79,2.01-2.77,2.23-1.98.22-3.92-1.71-3.92-4.73s1.49-4.87,3.38-4.87c1.52,0,1.96,1.04,2.61,1.04.44,0,.04-.76.47-.76M92.3,128.3c.07-.38.76.1,1.88.55,1.11.46,1.93.69,1.87.88-.07.18-.87-.12-.77.4.1.52,1.36,4.6,1.36,4.6,0,0,1.46-3.43,1.49-3.56.11-.42-.39-.49-.34-.69.05-.21.49.07.85.27.36.2.93.38.83.62-.1.23-.53-.3-.69.1-.17.4-3.09,6.89-3.09,6.89l-2.92-9.32c-.16-.54-.52-.49-.47-.74M85.63,125.79c0-.22.41-.04.41-.04l2.59.93s.46.15.44.36c-.02.2-.88-.26-.88.52v7.24s.19.48,1.05.14c.87-.35,2.15-1.2,2.15-1.2,0,0,.61-.3.46.12-.15.42-.76,1.76-.76,1.76,0,0-.14.52-.83.4-.7-.12-2.41-.64-2.88-.78-.47-.13-1.8-.53-1.8-.53,0,0-.27-.05-.27-.26s.83.02.83-.64v-7.07c0-.64-.51-.65-.51-.95M95.68,151.38c0-.5.7.19.7-.6v-6.99c0-.88-.4-.84-.4-1.19s.77.16.96.24c.19.07,2.21,1.11,2.43,1.22.21.1,2.38.98,2.38,3.33,0,1.62-1.36,1.36-1.36,1.36,0,0,1.36.79,1.44,1.98.09,1.19.25,2.2.25,2.36s.24.85.98.21c0,0,.09,1.42-1.55.9-1.07-.34-1.36-1.32-1.44-1.99-.09-.66-.46-3.86-1.9-3.81v3.2c0,.85.51.61.51,1.11,0,.32-.74-.19-1.41-.46-.99-.44-1.57-.58-1.57-.88M98.17,144.27v3.26c.21.08,1.84,1.11,1.84-.9s-1.84-2.35-1.84-2.35M94.59,156.46c.15-.51-.33-.65-.23-.86.07-.16.73.2,1.14.38.4.18,1.02.34,1.18.89.16.54,2.25,7.63,2.45,8.29.22.74.66.53.54.87-.06.14-.67-.16-1.89-.64-1.01-.4-1.51-.52-1.51-.68,0-.33,1.02.21.78-.47-.16-.47-.51-1.68-.51-1.68l-2.82-.9-.4,1.35c-.2.67.44.56.32.81-.06.14-.46-.04-.99-.25-.5-.2-.72-.24-.7-.38.03-.24.43.11.61-.38.19-.49,1.88-5.91,2.02-6.34M95.03,157.39l-.98,3.14,2.19.73-1.21-3.87ZM151.47,69.7v92.93c1.04,55.51-44.75,75.21-74.97,75.21S.49,218.14,1.53,162.63v-92.93h27.94c-.15-1.71.32-2.91.36-2.96,38.18-7.58,56.64-7.94,94.79.02.82.98.97,2.03.83,2.95h26ZM15.5,204.4l29.27-30.91v-9.03l-3.32-.11s-2.28-.63-1.72-2.87c.51-2.02,2.68-1.57,2.68-1.57,0,0-.51-1.86,1.4-2.71.35-.16.67-.23.96-.23v-5.99s-36.57,38.61-36.57,38.61c1.88,5.49,4.36,10.41,7.3,14.79M51.93,125.42c.4-.18.8-.36,1.2-.56,1.41-.7,3.95-2.03,6.69-3.17,2.69-1.13,5.87-2.23,8.42-2.23s4.63.77,6.04,1.52c.71.38,1.27.76,1.65,1.05l.14.12c.05-.07.11-.15.18-.24.29-.36.72-.77,1.34-1.16,1.25-.79,3.16-1.4,6.05-1.4s6.43,1.2,9.17,2.43l.63.29,47.02-49.66h-21.3l-41.41,43.73v-21.05l21.48-22.68H4.27v90.23c-.06,3.37.05,6.6.33,9.71l20.49-21.64h19.68v-17.24c-.37.5-.93.41-.93.41,0,0,.49-1.49-.87-1.71-.11-.02-.21-.02-.34-.02-.78,0-1.21.39-1.68.76-.72.58-2.88,3.08-3.3,3.48-.42-.41-2.57-2.91-3.3-3.48-.46-.37-.9-.76-1.67-.76-.13,0-.24,0-.34.02-1.37.22-.87,1.71-.87,1.71,0,0-1.24.2-1.24-1.67,0-1.32,1.06-2.1,2-2.35,1.42-.32,2.83-.42,3.09-2.75.02-.46-.06-.56-.06-.56,0,0-.51.77-1.77,1.37-1.46.76-5.41.7-5.31,2.95-.03.9.96.81.96.81,0,0-.05.41-.72.5-.15.03-.32.04-.53.02-.91-.13-1.22-1.09-1.15-2.3.05-.76-.46-1.76-1.45-1.61-.17.03-.36.09-.56.19-.75.44-.49,1.15-.49,1.15,0,0-.86-.47-.73-1.46.12-.85.68-1.24,1.48-1.57.1-.02.2-.04.29-.05,1.02-.16,1.88.15,1.88.15,0,0-.26-.78-.17-1.54.09-.66.44-1.33,1.44-1.51,1.49-.28,1.81.72,1.59,1.26-.08.05-.34-.34-.77-.28-.06,0-.13.03-.2.06-.25.13-.4.3-.47.47-.25.59.24,1.33.33,1.45.3.4,1.22.67,2.36.46,1.33-.29,2.28-1.14,2.74-1.91.25-.39.35-.77.32-1.01l.73-7.99s.23-2.05-1.18-2.29c-.16-.03-.33-.03-.5,0-1.19.19-2.43,1.76-2.04,3.73.3,1.51-.48,2.67-1.23,2.84-.96.22-1.54.04-1.87-.66,1.67-.11,1.56-1.43,1.04-1.91-.22-.2-.55-.25-.92-.2-1.56.24-4.02,2.37-4.41,3.64-.36,1.14.51.85.87,1.81.3.77-.36,1.39-.36,1.39-.02.26-.06.48-.1.66-.18.67-.53.89-.86.94-.25.04-.49-.03-.62-.07.41-.18.54-.56.57-.87.03-.22,0-.39,0-.39,0,0-.47.05-.87-.57-.47-.73.11-.95-.41-1.73-.52-.78-1.98-1.61-3.11-1.76-.08,0-.14,0-.21,0-.22.03-.43.15-.77.19-.09.02-.21.03-.33.03-.89.02-.65-.52-1.39-.46-.38.08-.6.44-.47.95.02.08-.04.13-.04.13-.41-.27-.57-.64-.61-1.08,0-1.15.73-1.97,1.44-2.03.83-.08,1.22.43,1.28.53.46-1.91-1.06-1.27-1.79-2.19-.49-.63-.3-.95-.23-1.18.1-.34-.5-.39-.96-.31-.13.02-.25.05-.34.08-.09-.08.15-.98,1.1-1.11.33-.06.74-.02,1.27.18.49-.15.96.09,1.14.43.21.4.04.85.09,1.34.15,1.27.93,1.23,1.06,1.22-.7-1.82.18-2.35.27-2.64.09-.29-.02-.67-.47-.83-.1-.04-.22-.11-.08-.15,0,0,1.75-.08,2.03,1.06,0,0,.76.4.78,1.34.02,1.17-.62,1.28-.87,1.51.18,1.22.91,1.43,1.59,1.33.67-.11,1.29-.5,1.29-.5,1.15-.46,3.55-1.92,2.9-3.12-.29-.55-.78-.78-1.32-.7-.26.04-.52.15-.77.33-.69.66-.35,1.52-.35,1.52-1.06.28-1.55-1.54-.89-2.31.46-.54,1.02-.76,1.63-.86.69-.12,1.44-.09,2.15-.24.84-.16,1.49-.69,2.11-1.77.46-.76.48-1.81.08-2.64-.41-.91-1.25-2.05-2.44-2.27-.22,1.97-1.32,3.52-2.66,4.47-.33.23-.76.35-1.06.4-.24.03-.39.02-.33-.05,1.75-2.02,1.3-4.15,1.25-4.35-.13.23-1.49,2.72-3.93,3.78-.23.1-.48.16-.73.2-1.31.2-2.62-.4-2.1-.47.86-.12,4.36-2.13,3.3-6.4-.13.25-1.67,2.97-3.56,4.25-.81.55-1.65.82-2.39.93-1.49.24-2.62-.17-2.41-.37,0,0,4.11-1.93,4.16-3.77-.13.11-1.24.96-2.54,1.16-.18.02-.36.04-.53.04-3.51,0-3.51-2.5-3.51-2.5.24.02,3.52.24,6.2-5.4,0,0-1.74.61-3.76.83-1.19.14-1.69-.61-1.55-.6.21.07.45.09.75.04.66-.1,1.6-.51,2.79-1.42-.32-.14-4.62-2.03-2.96-4.96,0,0,1.19,1.03,2.65,1.16,1.07.09,2.95-.11,3.4-1.18,0,0-2.32-.13-4.59-1.55-1.34-.83-1.86-2.8-1.37-2.23.5.59,1.02.76,1.79.95.6.15,1.01,0,1.01,0,0,0-3.34-3.13-1.23-5.57,0,0,1.13,3.12,3.89,3.13,0,0-1.4-1.29-1.68-2.84-.2-1.06-.12-2.47.08-2.07.13.28.43.78.63,1.14.34.62,1.08,1.44,1.67,1.94,0,0-.42-1.63.15-3.12.08-.23.86-1.47.91-1.16,0,0,0,.98.06,1.29.17,1.05.57,2.37,2.58,4.39,2.53,2.56,5.29,2.54,5.31,4.15-.1,1.91-2.47,1.66-4.03,1.52-.54,0-.47.82-.02,1.4,1.29,1.72,6.79,2.14,8.51-.65.61-.98.78-2.15.37-3.24-.52-1.45-1.7-1.49-3.94-1.98-1.59-.34-1.16-1.05-.93-1.05,0,0,.49.27.96.27,1.18,0,.46-1.49.34-1.47-.3.04-1.57.55-2.67.64-1.39.12-3.05-.43-3.05-1.39,0-1.15,1.46-1.47,1.39-1.17-.02.07-.88,1.63,1.69,1.55.81-.02,2.45-.12,2.44-.19-.05-.43-.81-1.04-1.39-1.04-.43,0-.82.11-1.61.03-.28-.68.47-1.38.98-1.63.52-.26.89-.14,1.11-.22.3-.1.48-1.04,2.2-1.07.9-.01,2.21.61,2.81.61s1.67-.39,1.78-.2c.1.2-.43.81-.33,1.35-.05,1.25,2.12,6.17,4.41,6.63,2.29-.47,4.47-5.39,4.41-6.63.11-.54-.43-1.15-.33-1.35.11-.19,1.19.2,1.79.2s1.91-.62,2.81-.61c1.71.03,1.9.97,2.2,1.07.22.08.59-.04,1.1.22.52.26,1.26.95.99,1.63-.78.08-1.18-.03-1.61-.03-.58,0-1.34.61-1.39,1.04,0,.07,1.63.16,2.44.19,2.57.09,1.71-1.47,1.69-1.55-.07-.3,1.39.02,1.39,1.17,0,.96-1.67,1.51-3.06,1.39-1.09-.09-2.36-.6-2.66-.64-.12-.02-.84,1.48.34,1.47.47,0,.96-.27.96-.27.24,0,.67.71-.92,1.05-2.24.48-3.43.53-3.95,1.98-.4,1.09-.24,2.26.36,3.24,1.72,2.79,7.22,2.37,8.52.65.44-.59.52-1.4-.03-1.4-1.55.14-3.92.38-4.03-1.52.03-1.6,2.78-1.59,5.31-4.15,2-2.02,2.41-3.34,2.58-4.39.05-.32.06-1.29.06-1.29.05-.31.83.94.91,1.16.57,1.48.15,3.12.15,3.12.59-.5,1.33-1.33,1.67-1.94.2-.36.5-.86.63-1.14.2-.4.27,1.01.08,2.07-.28,1.55-1.68,2.84-1.68,2.84,2.77,0,3.89-3.13,3.89-3.13,2.11,2.43-1.23,5.57-1.23,5.57,0,0,.41.14,1.02,0,.77-.19,1.28-.37,1.78-.95.49-.57-.03,1.4-1.37,2.23-2.27,1.42-4.59,1.55-4.59,1.55.45,1.07,2.33,1.27,3.39,1.18,1.46-.13,2.65-1.16,2.65-1.16,1.65,2.93-2.64,4.82-2.96,4.96,1.19.91,2.14,1.32,2.79,1.42.3.05.54.02.75-.04.14,0-.36.74-1.56.6-2.01-.22-3.75-.83-3.75-.83,2.68,5.64,5.95,5.42,6.2,5.4,0,0,0,2.5-3.51,2.5-.18,0-.35-.01-.53-.04-1.29-.2-2.41-1.05-2.54-1.16.06,1.84,4.16,3.77,4.16,3.77.22.19-.92.61-2.41.37-.75-.11-1.58-.38-2.39-.93-1.9-1.28-3.43-4-3.57-4.25-1.05,4.27,2.44,6.28,3.31,6.4.52.07-.79.67-2.1.47-.25-.04-.49-.11-.72-.2-2.44-1.07-3.8-3.55-3.93-3.78-.05.2-.51,2.33,1.24,4.35.06.07-.09.09-.32.05-.3-.05-.73-.17-1.06-.4-1.34-.95-2.44-2.5-2.67-4.47-1.18.21-2.02,1.36-2.43,2.27-.4.83-.39,1.88.07,2.64.63,1.09,1.27,1.61,2.12,1.77.71.15,1.45.12,2.14.24.61.11,1.18.32,1.64.86.66.77.16,2.59-.89,2.31,0,0,.35-.86-.35-1.52-.25-.18-.52-.29-.77-.33-.53-.08-1.02.15-1.32.7-.64,1.2,1.76,2.67,2.91,3.12,0,0,.62.39,1.29.5.68.1,1.42-.1,1.59-1.33-.25-.23-.88-.34-.87-1.51.02-.94.78-1.34.78-1.34.27-1.14,2.02-1.06,2.02-1.06.16.04.02.12-.07.15-.45.16-.56.54-.47.83.08.29.96.82.27,2.64.12.01.9.05,1.05-1.22.05-.49-.12-.95.1-1.34.17-.33.64-.57,1.14-.43.52-.19.93-.24,1.26-.18.95.14,1.18,1.03,1.18,1.03,0,0,.01.11-.09.08-.09-.03-.2-.06-.33-.08-.46-.07-1.07-.03-.97.31.06.23.26.55-.24,1.18-.72.92-2.24.27-1.78,2.19.06-.1.45-.61,1.28-.53.7.06,1.43.88,1.43,2.03-.02.44-.19.81-.6,1.08,0,0-.07-.05-.05-.13.13-.52-.09-.88-.47-.95-.73-.06-.49.48-1.39.46-.12,0-.23,0-.33-.03-.34-.05-.55-.16-.77-.19-.07,0-.14-.01-.21,0-1.14.15-2.59.98-3.11,1.76-.52.78.07,1.01-.41,1.73-.4.62-.87.57-.87.57,0,0-.02.17,0,.39,0,.09.02.17.05.26M48.92,126.54c.71-.21,1.49-.48,2.3-.82-.09-.14-.18-.32-.24-.56-.05-.18-.09-.4-.1-.66,0,0-.66-.61-.36-1.39.36-.96,1.22-.67.87-1.81-.4-1.27-2.86-3.4-4.41-3.64-.38-.05-.7,0-.92.2-.53.48-.63,1.8,1.04,1.91-.34.69-.92.88-1.87.66-.76-.17-1.54-1.33-1.24-2.84.4-1.97-.84-3.54-2.04-3.73-.16-.02-.33-.02-.49,0-1.41.24-1.18,2.29-1.18,2.29l.73,7.99c-.04.25.07.62.31,1.01.47.77,1.41,1.62,2.74,1.91,1.15.21,2.06-.06,2.37-.46.08-.12.58-.86.33-1.45-.08-.17-.22-.34-.47-.47-.07-.03-.14-.05-.2-.06-.42-.06-.69.33-.77.28-.22-.54.1-1.54,1.59-1.26,1,.18,1.35.85,1.43,1.51.1.77-.16,1.54-.16,1.54,0,0,.31-.11.78-.17M44.77,129.39c-.02-.12-.03-.35,0-.63-1.09-.31-2.29-.48-2.96-.83-1.26-.59-1.77-1.37-1.77-1.37,0,0-.07.1-.06.56.26,2.33,1.67,2.43,3.09,2.75.63.16,1.31.57,1.69,1.21v-1.69ZM95.52,174.32c-.22.46-.21,1.31.11,1.73,1.18,1.55,5.8,2.04,7.94.04-2.77-.43-5.37-1.14-8.05-1.77M108.4,170.03c.69.92,1.48,1.65,2.3,1.81,2.29-.46,4.47-5.39,4.41-6.63.11-.53-.43-1.14-.32-1.34.11-.19,1.18.2,1.78.2s1.91-.62,2.81-.61c1.72.02,1.9.96,2.2,1.07.23.08.59-.04,1.1.22.52.25,1.27.95.99,1.63-.79.08-1.18-.03-1.61-.03-.58,0-1.34.61-1.39,1.04,0,.07,1.63.16,2.44.19,2.57.08,1.71-1.47,1.69-1.55-.06-.3,1.4.02,1.4,1.17,0,.96-1.67,1.51-3.06,1.39-1.1-.1-2.36-.6-2.67-.65-.13-.02-.84,1.49.33,1.48.47,0,.96-.28.96-.28.24,0,.67.71-.93,1.05-2.24.49-3.42.53-3.95,1.98-.4,1.09-.24,2.26.37,3.24,1.72,2.78,7.22,2.37,8.51.66.45-.59.52-1.41-.03-1.41-1.55.14-3.92.38-4.03-1.53.03-1.6,2.78-1.58,5.31-4.15,2-2.02,2.41-3.34,2.58-4.39.05-.31.06-1.29.06-1.29.05-.31.83.93.91,1.16.57,1.48.15,3.12.15,3.12.59-.5,1.33-1.33,1.67-1.95.2-.36.5-.86.63-1.13.2-.41.28,1,.09,2.06-.28,1.54-1.68,2.84-1.68,2.84,2.77-.02,3.89-3.14,3.89-3.14,2.11,2.43-1.23,5.57-1.23,5.57,0,0,.41.15,1.01,0,.77-.2,1.29-.37,1.79-.95.49-.57-.04,1.4-1.38,2.22-2.27,1.42-4.59,1.56-4.59,1.56.45,1.07,2.33,1.27,3.4,1.18,1.46-.13,2.65-1.16,2.65-1.16,1.66,2.92-2.64,4.81-2.96,4.96,1.19.91,2.14,1.32,2.8,1.42.3.04.53.03.74-.04.14,0-.36.73-1.56.6-2.01-.22-3.75-.83-3.75-.83,2.67,5.64,5.95,5.42,6.2,5.4,0,0,0,2.5-3.51,2.5-.18,0-.36-.01-.53-.04-1.3-.2-2.41-1.06-2.55-1.16.06,1.84,4.16,3.77,4.16,3.77.21.19-.92.6-2.41.37-.75-.12-1.59-.39-2.39-.94-1.89-1.28-3.43-4-3.56-4.24-1.05,4.27,2.43,6.27,3.31,6.4.52.06-.79.67-2.1.46-.25-.03-.5-.1-.73-.2-2.44-1.06-3.8-3.55-3.93-3.78-.05.2-.5,2.33,1.25,4.36.05.06-.1.08-.33.04-.29-.04-.72-.17-1.06-.4-1.34-.95-2.44-2.5-2.67-4.47-1.18.21-2.02,1.35-2.43,2.26-.4.84-.39,1.89.07,2.64.63,1.09,1.27,1.61,2.12,1.78.7.14,1.45.11,2.14.23.61.11,1.18.32,1.64.86.66.78.17,2.59-.89,2.31,0,0,.35-.86-.34-1.52-.26-.18-.52-.29-.77-.33-.54-.08-1.02.16-1.32.71-.64,1.2,1.76,2.67,2.91,3.12,0,0,.63.39,1.3.49.69.11,1.42-.1,1.6-1.32-.25-.23-.89-.34-.87-1.51.02-.94.78-1.34.78-1.34.27-1.13,2.02-1.06,2.02-1.06.15.04.02.12-.08.16-.45.16-.56.54-.47.83.09.28.96.82.27,2.64.12.02.91.05,1.05-1.22.06-.49-.12-.95.09-1.35.17-.34.64-.57,1.14-.43.52-.19.93-.23,1.27-.18.95.14,1.19,1.03,1.19,1.03,0,0,0,.12-.09.09-.09-.04-.21-.07-.34-.09-.46-.07-1.07-.03-.97.32.06.23.26.54-.24,1.18-.73.92-2.23.28-1.78,2.19.07-.1.45-.61,1.28-.53.7.07,1.44.88,1.43,2.03-.03.43-.2.8-.6,1.08,0,0-.06-.05-.04-.12.13-.53-.09-.88-.48-.97-.73-.06-.48.48-1.39.46-.12,0-.23,0-.33-.03-.33-.05-.55-.16-.77-.2-.07,0-.14-.02-.21,0-1.14.15-2.59.98-3.11,1.76-.52.78.06,1.01-.41,1.73-.4.62-.87.58-.87.58,0,0-.02.17,0,.39.04.3.17.69.57.78,0,0,.12.06.01.09-.12.04-.36.11-.63.07-.32-.05-.67-.27-.85-.93-.05-.18-.08-.41-.1-.66,0,0-.66-.61-.37-1.39.37-.97,1.23-.67.87-1.81-.4-1.27-2.86-3.39-4.42-3.63-.37-.06-.69,0-.92.2-.52.47-.63,1.79,1.04,1.9-.34.69-.91.88-1.87.66-.75-.17-1.54-1.33-1.24-2.84.39-1.97-.84-3.55-2.04-3.73-.17-.03-.34-.03-.5,0-1.41.24-1.18,2.29-1.18,2.29l.72,7.99c-.04.25.07.62.31,1.02.47.77,1.41,1.62,2.74,1.9,1.15.21,2.07-.06,2.37-.46.08-.13.57-.86.32-1.45-.08-.18-.23-.34-.47-.47-.07-.03-.14-.05-.2-.06-.42-.06-.69.33-.78.28-.22-.55.1-1.54,1.59-1.26,1,.18,1.35.84,1.43,1.51.1.77-.17,1.54-.17,1.54,0,0,.86-.3,1.89-.15.09.01.19.03.29.06.8.32,1.37.71,1.48,1.56.13.98-.72,1.46-.72,1.46,0,0,.26-.71-.49-1.15-.21-.1-.39-.17-.56-.19-.99-.15-1.5.85-1.44,1.61.07,1.21-.24,2.16-1.15,2.3-.21.01-.39,0-.53-.02-.67-.1-.71-.5-.71-.5,0,0,.99.09.96-.81.1-2.24-3.85-2.19-5.31-2.95-1.26-.6-1.77-1.36-1.77-1.36,0,0-.08.09-.06.56.27,2.34,1.67,2.43,3.09,2.76.94.25,2.01,1.03,2.01,2.34,0,1.87-1.24,1.67-1.24,1.67,0,0,.49-1.49-.87-1.7-.1-.02-.21-.03-.34-.03-.77,0-1.21.39-1.68.75-.72.58-2.88,3.08-3.3,3.48-.42-.41-2.58-2.91-3.3-3.48-.47-.36-.9-.75-1.68-.75-.12,0-.23,0-.34.03-1.36.21-.87,1.7-.87,1.7,0,0-1.24.2-1.24-1.67,0-1.32,1.06-2.1,2-2.34,1.42-.32,2.82-.42,3.09-2.76.01-.47-.07-.56-.07-.56,0,0-.51.77-1.77,1.36-1.46.76-5.41.71-5.31,2.95-.03.9.96.81.96.81,0,0-.05.4-.71.5-.15.02-.32.03-.53.02-.91-.13-1.22-1.09-1.16-2.3.06-.76-.45-1.76-1.44-1.61-.18.03-.36.09-.57.19-.75.44-.49,1.15-.49,1.15,0,0-.86-.48-.73-1.46.12-.85.68-1.24,1.48-1.56.1-.03.2-.04.29-.06,1.03-.16,1.89.15,1.89.15,0,0-.27-.77-.17-1.54.09-.66.43-1.32,1.44-1.51,1.49-.28,1.81.71,1.59,1.26-.09.05-.35-.34-.78-.28-.06,0-.13.03-.2.06-.25.13-.39.29-.47.47-.25.59.25,1.32.32,1.45.3.4,1.22.67,2.37.46,1.33-.28,2.28-1.14,2.74-1.9.24-.4.35-.77.31-1.02l.72-7.99s.23-2.05-1.18-2.29c-.16-.03-.33-.03-.5,0-1.19.19-2.43,1.76-2.04,3.73.3,1.51-.48,2.66-1.24,2.84-.96.22-1.54.03-1.87-.66,1.66-.11,1.56-1.43,1.04-1.9-.22-.2-.55-.26-.92-.2-1.56.24-4.02,2.36-4.42,3.63-.36,1.14.5.85.87,1.81.3.78-.37,1.39-.37,1.39-.01.26-.05.48-.1.66-.17.67-.53.89-.85.93-.26.04-.5-.03-.63-.07.41-.17.54-.56.58-.87.03-.22,0-.39,0-.39,0,0-.47.04-.87-.58-.48-.72.11-.95-.41-1.73-.53-.78-1.98-1.62-3.11-1.76-.08,0-.15,0-.21,0-.23.03-.44.15-.77.2-.1.02-.21.03-.33.03-.9.02-.65-.52-1.39-.46-.39.08-.61.44-.47.97.01.07-.05.12-.05.12-.41-.27-.58-.65-.6-1.08-.01-1.15.73-1.97,1.43-2.03.84-.08,1.22.44,1.28.53.46-1.91-1.06-1.27-1.78-2.19-.5-.64-.3-.95-.23-1.18.1-.35-.51-.39-.97-.32-.13.02-.25.05-.33.09-.1-.09.14-.98,1.09-1.12.33-.05.74-.01,1.26.18.5-.15.96.09,1.14.43.21.4.03.85.09,1.35.14,1.27.93,1.23,1.05,1.22-.7-1.81.18-2.35.27-2.64.09-.29-.02-.67-.47-.83-.1-.03-.23-.12-.08-.16,0,0,1.76-.07,2.03,1.06,0,0,.76.4.78,1.34.02,1.17-.62,1.28-.87,1.51.18,1.22.91,1.43,1.6,1.32.67-.1,1.29-.49,1.29-.49,1.15-.46,3.55-1.92,2.91-3.12-.3-.55-.78-.78-1.32-.71-.25.04-.52.15-.77.33-.69.65-.35,1.52-.35,1.52-1.06.28-1.56-1.54-.9-2.31.46-.54,1.03-.75,1.64-.86.69-.12,1.44-.09,2.14-.23.85-.17,1.49-.69,2.12-1.78.46-.76.47-1.8.08-2.64-.41-.91-1.25-2.05-2.44-2.26-.23,1.97-1.33,3.52-2.67,4.47-.33.23-.77.36-1.06.4-.24.03-.38.02-.33-.04,1.75-2.03,1.3-4.15,1.25-4.36-.13.23-1.48,2.72-3.93,3.78-.24.1-.48.17-.73.2-1.31.2-2.62-.4-2.1-.46.87-.12,4.36-2.13,3.31-6.4-.14.24-1.67,2.96-3.56,4.24-.81.55-1.64.82-2.39.94-1.49.23-2.62-.18-2.41-.37,0,0,4.11-1.93,4.16-3.77-.13.1-1.25.96-2.55,1.16-.17.03-.35.04-.53.04-3.51,0-3.51-2.5-3.51-2.5.25.03,3.52.24,6.2-5.4,0,0-1.75.61-3.75.83-1.2.13-1.7-.61-1.56-.6.21.07.45.09.75.04.66-.11,1.61-.52,2.8-1.42-.31-.15-4.62-2.03-2.96-4.96,0,0,1.19,1.03,2.65,1.16,1.07.09,2.95-.11,3.4-1.18,0,0-2.32-.14-4.59-1.56-.07-.04-.14-.09-.21-.14-1.04,0-2.11.05-3.22.16-.73,2.85-3.12,4.95-5.95,4.95s-5.19-2.07-5.94-4.9c-1.84-.32-3.6-.37-5.33-.23l-40.27,42.53c3.89,3.61,8.14,6.67,12.58,9.21l37.66-39.76v21.04l-23.65,24.97c8.6,2.88,17.27,4.19,24.95,4.19,29.37,0,73.22-19.08,72.22-72.46v-34.34l-18.82,19.87h-19.93l38.75-40.93v-22.5l-40.63,42.91c.19.15.3.32.3.51v41.85ZM104.02,182.9h13.37v-5.33h-13.37v5.33ZM110.7,193.3c6.01,0,6.54-5.63,6.54-5.63h-13.11s.56,5.63,6.58,5.63M30.98,100.53h13.37v-5.32h-13.37v5.32ZM37.66,110.94c6.01,0,6.53-5.64,6.53-5.64h-13.11s.57,5.64,6.58,5.64M73.72,172.22c0,1.58,1.29,2.85,2.88,2.85s2.88-1.28,2.88-2.85-1.29-2.85-2.88-2.85-2.88,1.28-2.88,2.85M46.6,129.26v43.72s.48.59,3.43-.21c3.39-.92,7.6-5.2,13.49-6.48,4.42-.95,10.39.43,11.78,1.39v-43.8s-2.67-2.6-7.06-2.6-11.52,3.82-14.3,5.2c-2.42,1.2-4.97,2.1-6.82,2.28-.56.05-.51.5-.51.5M85.25,166.19c7.66,0,11.65,4.71,14.24,5.74,6.05,2.38,7.06,1.16,7.06,1.16v-43.95c0-.43-.64-.43-.64-.43,0,0-5.9-.9-7.92-2.13-1.93-1.16-9.1-5.42-14.35-5.42s-6.21,2.23-6.21,2.23v44.38s2.46-1.59,7.81-1.59"/>
      </g>
      <path id="path16-2" data-name="path16" class="cls-1" d="M1288.94,68.82l-143.47,175.6h-11.4s143.45-175.59,143.45-175.59h11.42"/>
    </g>
  </g>
  <g>
    <path class="cls-1" d="M1354.44,87.27c-.17,1.04-.72,1.95-1.06,2.36h-2.59l-.08-9.16h2.59c.42.73.89,2.13,1.15,3.54,1.06,1.23,3.1,2.13,5.22,2.13,2.5,0,3.73-1.13,3.73-2.81,0-1.77-1.44-2.27-3.61-2.77l-2.55-.63c-4.16-1-6.32-2.95-6.32-6.62,0-4.31,3.48-7.17,7.93-7.17,2.29,0,4.33.73,5.47,1.81.3-1.18.85-2.04,1.27-2.31l2.33.23-.17,8.71h-2.55c-.38-.95-.93-2.22-1.06-3.76-.89-.68-2.16-1.13-3.73-1.13-2.16,0-3.35,1.09-3.35,2.77,0,1.95,1.74,2.45,3.73,2.9l2.12.5c4.07,1,6.7,2.86,6.7,6.8,0,4.4-3.52,7.08-8.44,7.08-2.84,0-5.34-.91-6.74-2.45Z"/>
    <path class="cls-1" d="M1372.21,78.11c0-7.76,5.01-11.89,11.62-11.89,5.26,0,8.7,3.18,8.7,6.94,0,2.18-1.4,3.54-3.1,3.54s-3.01-1-3.01-2.9c0-1.5,1.23-2.58,2.38-2.86-.72-.5-1.7-1.09-3.86-1.09-4.03,0-6.15,3.08-6.15,7.76,0,5.17,2.63,7.35,6.36,7.35,2.93,0,5.22-1.5,6.53-3.31l.98,1.77c-.51,2.63-3.39,6.21-9.12,6.21-6.24,0-11.33-3.49-11.33-11.52Z"/>
    <path class="cls-1" d="M1397.62,85.64v-26.49c-1.19.27-3.56.09-4.58-.36v-2.95c1.32-.59,3.9-.95,6.19-.95,1.91,0,3.69.18,4.67.45v15.38c.81-2.81,2.93-4.49,6.66-4.49,5.68,0,7.76,3.99,7.76,9.93v9.48c1.78.04,3.22.41,4.03.82v2.81h-13.66v-2.81c.68-.36,1.82-.68,3.31-.77v-9.53c0-3.63-1.19-5.26-3.99-5.26-1.87,0-3.44,1.18-4.12,2.31v12.47c1.44.09,2.59.41,3.31.77v2.81h-13.62v-2.81c.76-.41,2.21-.77,4.03-.82Z"/>
    <path class="cls-1" d="M1423.5,77.92c0-7.89,5-11.7,11.5-11.7s11.45,3.67,11.45,11.7-4.88,11.7-11.45,11.7-11.5-3.22-11.5-11.7ZM1434.99,85.23c3.05,0,4.92-2.36,4.92-7.3s-1.87-7.3-4.92-7.3-4.92,2.5-4.92,7.3,1.82,7.3,4.92,7.3Z"/>
    <path class="cls-1" d="M1452.13,85.64v-26.49c-1.19.27-3.56.09-4.58-.36v-2.95c1.23-.59,3.95-.95,6.24-.95,1.91,0,3.65.18,4.62.45v30.3c1.78.04,3.18.41,4.03.82v2.81h-14.34v-2.81c.81-.41,2.21-.77,4.03-.82Z"/>
    <path class="cls-1" d="M1468.5,85.64v-14.79c-1.14.27-3.52.09-4.5-.36v-2.95c1.27-.59,3.86-.95,6.15-.95,1.95,0,3.69.18,4.67.45v18.6c1.82.04,3.22.41,3.99.82v2.81h-14.34v-2.81c.85-.41,2.21-.77,4.03-.82ZM1471.17,55.92c2.16,0,3.82,1.13,3.82,3.4s-1.74,3.4-3.82,3.4-3.86-1.09-3.86-3.4,1.78-3.4,3.86-3.4Z"/>
    <path class="cls-1" d="M1480.51,78.11c0-7.35,4.79-11.89,11.58-11.89,5.98,0,9.63,3.31,9.63,7.98,0,2.04-.34,3.63-.64,4.45h-14c.17,4.31,2.63,6.31,6.66,6.31,3.05,0,5.51-1.5,6.83-3.31l.93,1.77c-.47,2.63-3.69,6.21-9.29,6.21-6.62,0-11.71-3.4-11.71-11.52ZM1496.07,75.56v-.91c0-1.81-.93-4.22-3.94-4.22s-4.45,1.91-4.92,5.13h8.87Z"/>
    <path class="cls-1" d="M1508.71,85.64v-14.79c-1.14.27-3.52.09-4.5-.36v-2.95c1.27-.59,3.86-.95,6.15-.95,1.95,0,3.69.18,4.67.45v4.76c.93-2.77,2.93-5.35,6.28-5.35,2.25,0,3.78,1.54,3.78,3.63,0,2.31-1.27,3.81-3.1,3.81s-3.14-1.27-2.93-3.4c-1.53.36-3.48,2.31-4.03,4.72v10.43h.04c1.95,0,4.33.36,5.22.82v2.81h-15.61v-2.81c.85-.41,2.25-.77,4.03-.82Z"/>
    <path class="cls-1" d="M1526.4,78.11c0-7.35,4.79-11.89,11.58-11.89,5.98,0,9.63,3.31,9.63,7.98,0,2.04-.34,3.63-.64,4.45h-14c.17,4.31,2.63,6.31,6.66,6.31,3.05,0,5.51-1.5,6.83-3.31l.93,1.77c-.47,2.63-3.69,6.21-9.29,6.21-6.62,0-11.71-3.4-11.71-11.52ZM1541.97,75.56v-.91c0-1.81-.93-4.22-3.94-4.22s-4.45,1.91-4.92,5.13h8.87Z"/>
    <path class="cls-1" d="M1554.61,85.64v-14.79c-1.14.27-3.52.09-4.5-.36v-2.95c1.27-.59,3.86-.95,6.15-.95,1.95,0,3.69.18,4.67.45v3.63c.85-2.77,2.97-4.45,6.7-4.45,5.68,0,7.72,3.99,7.72,9.93v9.48c1.65.09,2.97.41,3.73.82v2.81h-13.36v-2.81c.68-.36,1.87-.68,3.35-.77v-9.53c0-3.63-1.19-5.26-4.07-5.26-1.82,0-3.35,1.13-4.07,2.31v12.47c1.48.09,2.63.41,3.35.77v2.81h-13.7v-2.81c.85-.41,2.25-.77,4.03-.82Z"/>
    <path class="cls-1" d="M1580.66,83.5c0-4.72,4.11-6.53,9.8-6.53,1.27,0,2.84.23,3.9.54l.04-2.99c.04-3.13-1.36-4.72-4.88-4.72-1.53,0-2.8.45-3.73,1.04,1.1.04,2.08.77,2.08,2.22,0,1.63-1.1,2.63-2.84,2.63s-2.97-1.09-2.97-3.04c0-3.81,4.88-6.62,9.33-6.62,6.79,0,9.46,3.31,9.33,8.62-.08,2.59-.17,6.35-.17,7.76,0,2.13.68,2.68,2.16,2.68,1.15,0,1.99-.32,2.63-.73l-.38,3.08c-.68,1.04-2.25,2.18-4.88,2.18-2.42,0-4.45-.91-5.3-3.31-1.02,1.77-3.39,3.31-7.08,3.31s-7.04-1.82-7.04-6.12ZM1590.24,85.36c1.66,0,3.27-.63,4.03-1.32l.04-3.81c-.72-.14-1.57-.27-2.5-.27-2.55,0-4.54.54-4.54,2.86,0,1.72,1.19,2.54,2.97,2.54Z"/>
    <path class="cls-1" d="M1606.7,78.11c0-7.76,5-11.89,11.62-11.89,5.26,0,8.7,3.18,8.7,6.94,0,2.18-1.4,3.54-3.1,3.54s-3.01-1-3.01-2.9c0-1.5,1.23-2.58,2.38-2.86-.72-.5-1.7-1.09-3.86-1.09-4.03,0-6.15,3.08-6.15,7.76,0,5.17,2.63,7.35,6.36,7.35,2.93,0,5.22-1.5,6.53-3.31l.98,1.77c-.51,2.63-3.39,6.21-9.12,6.21-6.24,0-11.33-3.49-11.33-11.52Z"/>
    <path class="cls-1" d="M1629.02,83.5c0-4.72,4.11-6.53,9.8-6.53,1.27,0,2.84.23,3.9.54l.04-2.99c.04-3.13-1.36-4.72-4.88-4.72-1.53,0-2.8.45-3.73,1.04,1.1.04,2.08.77,2.08,2.22,0,1.63-1.1,2.63-2.84,2.63s-2.97-1.09-2.97-3.04c0-3.81,4.88-6.62,9.33-6.62,6.79,0,9.46,3.31,9.33,8.62-.08,2.59-.17,6.35-.17,7.76,0,2.13.68,2.68,2.16,2.68,1.15,0,1.99-.32,2.63-.73l-.38,3.08c-.68,1.04-2.25,2.18-4.88,2.18-2.42,0-4.45-.91-5.3-3.31-1.02,1.77-3.39,3.31-7.08,3.31s-7.04-1.82-7.04-6.12ZM1638.6,85.36c1.65,0,3.27-.63,4.03-1.32l.04-3.81c-.72-.14-1.57-.27-2.5-.27-2.55,0-4.54.54-4.54,2.86,0,1.72,1.19,2.54,2.97,2.54Z"/>
    <path class="cls-1" d="M1655.06,78.6c0-7.85,4.54-12.38,10.52-12.38,2.63,0,4.24.86,5.22,2.09v-9.16c-1.15.27-3.56.09-4.54-.36v-2.95c1.32-.59,3.9-.95,6.15-.95,1.95,0,3.73.18,4.71.45v29.67c1.15-.27,3.52-.09,4.5.36v2.95c-1.27.59-3.9.95-6.15.95-1.95,0-3.69-.18-4.67-.45v-3.22c-.93,2.4-3.18,4.04-6.7,4.04-5.73,0-9.04-4.36-9.04-11.02ZM1666.64,84.95c1.95,0,3.39-.68,4.16-1.81v-11.57c-.81-.73-1.99-1.27-3.65-1.27-3.39,0-5.51,3.13-5.51,7.89s2.12,6.76,5,6.76Z"/>
    <path class="cls-1" d="M1683.06,78.11c0-7.35,4.79-11.89,11.58-11.89,5.98,0,9.63,3.31,9.63,7.98,0,2.04-.34,3.63-.64,4.45h-14c.17,4.31,2.63,6.31,6.66,6.31,3.05,0,5.51-1.5,6.83-3.31l.93,1.77c-.47,2.63-3.69,6.21-9.29,6.21-6.62,0-11.71-3.4-11.71-11.52ZM1698.63,75.56v-.91c0-1.81-.93-4.22-3.94-4.22s-4.45,1.91-4.92,5.13h8.87Z"/>
    <path class="cls-1" d="M1711.27,85.64v-14.79c-1.14.27-3.52.09-4.5-.36v-2.95c1.27-.59,3.86-.95,6.15-.95,1.95,0,3.69.18,4.67.45v3.63c.81-2.77,2.88-4.45,6.53-4.45s5.81,1.72,6.79,4.63c.98-2.77,3.52-4.63,7.17-4.63,5.68,0,7.68,4.04,7.68,9.93v9.48c1.65.09,2.93.41,3.69.82v2.81h-13.11v-2.81c.68-.36,1.7-.68,3.1-.77v-9.53c0-3.58-1.1-5.26-3.95-5.26-1.74,0-3.31,1.09-3.99,2.22.13.95.21,2,.21,3.04v9.53c1.36.09,2.38.41,3.1.77v2.81h-12.51v-2.81c.68-.36,1.7-.68,3.1-.77v-9.53c0-3.58-1.1-5.26-3.9-5.26-1.74,0-3.18,1.13-3.9,2.31v12.47c1.4.09,2.42.41,3.1.77v2.81h-13.45v-2.81c.85-.41,2.25-.77,4.03-.82Z"/>
    <path class="cls-1" d="M1754.87,85.64v-14.79c-1.14.27-3.52.09-4.5-.36v-2.95c1.27-.59,3.86-.95,6.15-.95,1.95,0,3.69.18,4.67.45v18.6c1.82.04,3.22.41,3.99.82v2.81h-14.34v-2.81c.85-.41,2.21-.77,4.03-.82ZM1757.55,55.92c2.16,0,3.82,1.13,3.82,3.4s-1.74,3.4-3.82,3.4-3.86-1.09-3.86-3.4,1.78-3.4,3.86-3.4Z"/>
    <path class="cls-1" d="M1766.88,78.11c0-7.35,4.79-11.89,11.58-11.89,5.98,0,9.63,3.31,9.63,7.98,0,2.04-.34,3.63-.64,4.45h-14c.17,4.31,2.63,6.31,6.66,6.31,3.05,0,5.51-1.5,6.83-3.31l.93,1.77c-.47,2.63-3.69,6.21-9.29,6.21-6.62,0-11.71-3.4-11.71-11.52ZM1782.45,75.56v-.91c0-1.81-.93-4.22-3.94-4.22s-4.45,1.91-4.92,5.13h8.87Z"/>
  </g>
</svg>